# xmcd
#
# Track frame offsets:
#	150
#	15317
#	37157
#	56005
#	68770
#	86457
#	99567
#	114437
#	129460
#	148525
#	167830
#	185912
#
# Disc length: 2651 seconds
#
# Revision: 1
# Processed by: cddbd v1.5.2PL0 Copyright (c) Steve Scherf et al.
# Submitted via: audiograbber 1.83.01
#
DISCID=a30a590c
DTITLE=Maureen Woods - Lone Country Singer
DYEAR=1900
DGENRE=Country
TTITLE0=Cowgirls Lament
TTITLE1=Let The Canefields Burn
TTITLE2=The Outlaw And The Lady
TTITLE3=Singles To Doubles
TTITLE4=Sweet Red Wine
TTITLE5=Road Without An End
TTITLE6=The Lone Country Singer
TTITLE7=I'm In Love With A Rodeo Man
TTITLE8=Why Dont You Love Me
TTITLE9=Standing On The Rooftop Of Australia
TTITLE10=Riding Out The Storm
TTITLE11=Truck Driving Man
EXTD=
EXTT0=
EXTT1=
EXTT2=
EXTT3=
EXTT4=
EXTT5=
EXTT6=
EXTT7=
EXTT8=
EXTT9=
EXTT10=
EXTT11=
PLAYORDER=
